# xmcd CD database file
#
# Track frame offsets:
#	150
#	5717
#	9337
#	13509
#	17484
#	22131
#	26483
#	31356
#	34656
#	38793
#	43295
#	48152
#	52289
#	56406
#	60085
#	63979
#	68870
#	72675
#	77025
#	81758
#	87393
#	91804
#	96767
#	100740
#	105093
#	109291
#	112816
#	116415
#	119631
#	122940
#	126525
#	131482
#	135687
#	140787
#	144768
#	149796
#	155715
#	159904
#	163667
#	167785
#	171675
#	175054
#	178820
#	182476
#	186681
#	190128
#	195269
#	200331
#	204603
#	208807
#	212337
#	215632
#	218853
#	222020
#	224490
#	227109
#	228906
#	230720
#	233635
#
# Disc length: 3160 seconds
#
# Revision: 0
# Processed by: cddbd v1.5.2PL0 Copyright (c) Steve Scherf et al.
# Submitted via: CDex 1.70beta2
#
DISCID=670c563b
DTITLE=STEVE and ROBIN SORESI - 英会話 ペラペラ練習帳
DYEAR=2001
DGENRE=語学
TTITLE0=I'm thinking about and ing.
TTITLE1=There's ...
TTITLE2=There's nothing [to...]
TTITLE3=Is there...?
TTITLE4=I saw...
TTITLE5=I ran into...
TTITLE6=what-cha-ma-call-it
TTITLE7=My...hurts.
TTITLE8=I have [+病名]
TTITLE9=I can't wait to...
TTITLE10=I7m looking foward to...
TTITLE11=Do you mean...?
TTITLE12=That's not what 主語+mean.
TTITLE13=I'll get...
TTITLE14=I think I and 動詞.
TTITLE15=I think 主語 and 動詞
TTITLE16=Maybe 主語 and 動詞
TTITLE17=probably...
TTITLE18=Everyone and 動詞.
TTITLE19=Most...
TTITLE20=not that
TTITLE21=I didn't think ～ was that...
TTITLE22=What..do you ～ ?
TTITLE23=I'm and -ing
TTITLE24=Are you and -ing?
TTITLE25=It might...
TTITLE26=I might...
TTITLE27=Would you like...?
TTITLE28=Would you like to ...?
TTITLE29=Why don't we...?
TTITLE30=used to...
TTITLE31=It depends on...
TTITLE32=It's up to you.
TTITLE33=I love...
TTITLE34=There's nothing we can do about...
TTITLE35=I'm not sure how to and 動詞.
TTITLE36=What do you think about...?
TTITLE37=Are you sure 主語 and 動詞?
TTITLE38=I'll let you know (...).
TTITLE39=Let me know...
TTITLE40=Let me and 動詞.
TTITLE41=I wish...
TTITLE42=I hope...
TTITLE43=Trust me when it comes to...
TTITLE44=It's just...
TTITLE45=It's not your (...'s) fault.
TTITLE46=It's been (a long time／～) since...
TTITLE47=What was your ..., again?
TTITLE48=How often do you...?
TTITLE49=Good luck with...
TTITLE50=Bounus Lesson 1
TTITLE51=Bounus Lesson 2
TTITLE52=Bounus Lesson 3
TTITLE53=Bounus Lesson 4
TTITLE54=Bounus Lesson 5
TTITLE55=Coffee Break 1 (Steve)
TTITLE56=Coffee Break 2 (Robin)
TTITLE57=Coffee Break 3 (Sasha)
TTITLE58=Coffee Break 4 (Steve)
EXTD=YEAR: 2001
EXTT0=
EXTT1=
EXTT2=
EXTT3=
EXTT4=
EXTT5=
EXTT6=
EXTT7=
EXTT8=
EXTT9=
EXTT10=
EXTT11=
EXTT12=
EXTT13=
EXTT14=
EXTT15=
EXTT16=
EXTT17=
EXTT18=
EXTT19=
EXTT20=
EXTT21=
EXTT22=
EXTT23=
EXTT24=
EXTT25=
EXTT26=
EXTT27=
EXTT28=
EXTT29=
EXTT30=
EXTT31=
EXTT32=
EXTT33=
EXTT34=
EXTT35=
EXTT36=
EXTT37=
EXTT38=
EXTT39=
EXTT40=
EXTT41=
EXTT42=
EXTT43=
EXTT44=
EXTT45=
EXTT46=
EXTT47=
EXTT48=
EXTT49=
EXTT50=
EXTT51=
EXTT52=
EXTT53=
EXTT54=
EXTT55=
EXTT56=
EXTT57=
EXTT58=
PLAYORDER=
